<?xml version="1.0" encoding="UTF-8"?>
<svg version="1.1" xmlns="http://www.w3.org/2000/svg" width="1519" height="607">
<path d="M0 0 C501.27 0 1002.54 0 1519 0 C1519 200.31 1519 400.62 1519 607 C1017.73 607 516.46 607 0 607 C0 406.69 0 206.38 0 0 Z " fill="#FEFEFE" transform="translate(0,0)"/>
<path d="M0 0 C1.43351807 0.47542236 1.43351807 0.47542236 2.89599609 0.96044922 C38.11715102 12.6644299 71.3926675 31.73080543 98.7421875 56.92578125 C100.77163463 58.79020413 102.84034156 60.58774554 104.9375 62.375 C113.81119926 70.11703316 122.02932326 78.68589711 129.3125 87.9375 C130.83873758 90.08980875 130.83873758 90.08980875 133 91 C133.02696365 89.20841511 133.04637917 87.41671527 133.0625 85.625 C133.07990234 84.12839844 133.07990234 84.12839844 133.09765625 82.6015625 C133.18006602 80.01567547 133.18006602 80.01567547 132 78 C148.5 78 165 78 182 78 C182 81.96 182 85.92 182 90 C182.54433746 93.35756477 182.54433746 93.35756477 183.55029297 96.19677734 C183.89323395 97.26474045 184.23617493 98.33270355 184.58950806 99.43302917 C185.16008438 101.1174688 185.16008438 101.1174688 185.7421875 102.8359375 C186.13779877 104.0501387 186.53341003 105.2643399 186.94100952 106.51533508 C188.01050737 109.79620927 189.1015602 113.06952701 190.19697571 116.34182358 C191.33810437 119.76370081 192.45826871 123.19243176 193.58105469 126.62036133 C196.13140054 134.39201271 198.71235822 142.15329113 201.30274963 149.9116745 C201.99188004 151.97568003 202.68051737 154.03984944 203.36901855 156.10406494 C204.47554793 159.42123074 205.58274639 162.73817257 206.69035721 166.05497742 C207.11810618 167.335947 207.54577794 168.61694237 207.9733696 169.89796448 C210.17562927 176.49542594 212.38443344 183.09050357 214.61279297 189.67919922 C215.15995468 191.30464912 215.15995468 191.30464912 215.71817017 192.9629364 C216.3972355 194.97998183 217.07978219 196.99585987 217.76644897 199.0103302 C218.0629837 199.8933934 218.35951843 200.7764566 218.66503906 201.6862793 C218.92448303 202.45191696 219.183927 203.21755463 219.45123291 204.00639343 C220 206 220 206 220 209 C220.66 209 221.32 209 222 209 C222.13068375 208.27290833 222.26136749 207.54581665 222.39601135 206.79669189 C222.96606357 204.15713829 223.72058728 201.7797214 224.66381836 199.25292969 C225.17814674 197.86640701 225.17814674 197.86640701 225.7028656 196.45187378 C226.07806839 195.45197418 226.45327118 194.45207458 226.83984375 193.421875 C227.43086632 191.83271774 227.43086632 191.83271774 228.03382874 190.2114563 C228.88641338 187.92013312 229.74067953 185.62943507 230.59643555 183.33929443 C232.40757676 178.49186218 234.21023265 173.6412896 236.01333618 168.79086304 C236.94487419 166.2851967 237.8767399 163.77965535 238.80917358 161.27432251 C243.17616462 149.53909096 247.51461435 137.79343011 251.83547974 126.0411377 C252.97588234 122.94057192 254.11864902 119.84088428 255.26147461 116.74121094 C256.91839048 112.24286562 258.55776894 107.73846909 260.18652344 103.2298584 C260.90161974 101.26967469 261.64036001 99.31815052 262.3828125 97.36816406 C262.75148438 96.36237305 263.12015625 95.35658203 263.5 94.3203125 C263.7990625 93.53156738 264.098125 92.74282227 264.40625 91.93017578 C265.32924965 87.37514216 265 82.64760794 265 78 C280.18 78 295.36 78 311 78 C308.03 81.465 308.03 81.465 305 85 C295.41348255 99.29665608 289.06482175 115.85850765 282.09484863 131.53955078 C280.96801462 134.07188064 279.83748844 136.60253469 278.70605469 139.1328125 C270.12228771 158.33645446 261.65577761 177.58383724 253.5625 197 C253.253125 197.74085846 252.94375 198.48171692 252.625 199.24502563 C244.49697721 218.45294056 244.49697721 218.45294056 242 239 C227.48 239 212.96 239 198 239 C198.33 238.34 198.66 237.68 199 237 C199.62361138 230.7006422 198.55206798 225.33285259 196.53515625 219.40234375 C196.13849007 218.18571297 196.13849007 218.18571297 195.73381042 216.94450378 C194.85715763 214.27072775 193.9604871 211.60417964 193.0625 208.9375 C192.43466081 207.04234055 191.80739417 205.14699135 191.18066406 203.25146484 C184.71562221 183.8010929 177.82108179 164.4995874 170.92407227 145.19924927 C168.11280602 137.32870852 165.32515738 129.4503499 162.58605957 121.55438232 C161.95764815 119.74549656 161.32412267 117.93838994 160.69042969 116.13134766 C160.32723633 115.08124512 159.96404297 114.03114258 159.58984375 112.94921875 C159.27909912 112.05549561 158.96835449 111.16177246 158.64819336 110.2409668 C158 108 158 108 158 105 C157.34 105 156.68 105 156 105 C155.6839151 106.35333438 155.37235649 107.70772601 155.0625 109.0625 C154.88847656 109.81660156 154.71445312 110.57070312 154.53515625 111.34765625 C154.35855469 112.22292969 154.18195312 113.09820312 154 114 C153.72542969 115.10214844 153.45085938 116.20429688 153.16796875 117.33984375 C152.95032875 122.08237127 154.71521915 124.7008282 157.25 128.5 C170.23838183 149.25774085 179.84166472 172.31659019 186 196 C186.24637207 196.94343262 186.49274414 197.88686523 186.74658203 198.85888672 C194.57882278 229.39735113 195.43314396 258.6759176 195 290 C200.28 290 205.56 290 211 290 C211.33 314.75 211.66 339.5 212 365 C216.455 361.04 216.455 361.04 221 357 C237.51631553 346.74536453 255.81703186 344.25485206 274.76538086 348.44018555 C286.56181093 351.39541489 295.75368994 357.51636286 302.375 367.8125 C307.70338414 377.48812105 310.10334748 387.54391804 310.15771484 398.53076172 C310.16533592 399.62470749 310.16533592 399.62470749 310.17311096 400.74075317 C310.18376226 402.31540629 310.19240271 403.89007405 310.19923019 405.46474838 C310.21109416 407.96267141 310.23056498 410.46042732 310.25234985 412.95828247 C310.31371972 420.05725501 310.36797037 427.15620724 310.40136719 434.25537109 C310.42238192 438.6066708 310.45773406 442.95765944 310.50212479 447.30878067 C310.51622497 448.96003674 310.52499363 450.61134778 310.52817917 452.26266098 C310.53312141 454.57891893 310.55636125 456.89435921 310.58349609 459.21044922 C310.59158295 460.52471893 310.5996698 461.83898865 310.60800171 463.19308472 C310.9218974 467.81928207 310.9218974 467.81928207 314 475 C302.45 475 290.9 475 279 475 C280.485 471.04 280.485 471.04 282 467 C282.444621 463.37576053 282.444621 463.37576053 282.38818359 459.67285156 C282.39344055 458.98870178 282.39869751 458.304552 282.40411377 457.59967041 C282.41719525 455.36308173 282.40861468 453.12721953 282.3984375 450.890625 C282.40046258 449.3165473 282.40337763 447.74247052 282.40713501 446.168396 C282.41154314 442.87682115 282.40517985 439.5854915 282.39111328 436.29394531 C282.37407871 432.10709055 282.38383552 427.92081532 282.40183067 423.73398209 C282.41275807 420.48398609 282.40918058 417.23412362 282.4014473 413.98412323 C282.39946697 412.44219644 282.40182696 410.90025693 282.40888596 409.35834503 C282.45874413 395.40164258 281.42713876 382.59593737 271.25 372.1875 C262.15752174 366.06756271 251.6771852 365.7176732 241 367 C236.61758353 368.12814682 232.91009385 369.73910217 229 372 C227.86304688 372.65162109 227.86304688 372.65162109 226.703125 373.31640625 C218.62960801 378.64310637 214.07173049 387.72499946 212 397 C211.56355718 402.38866572 211.57678239 407.7625314 211.6015625 413.1640625 C211.59953772 414.72626887 211.59662292 416.28847432 211.59286499 417.85067749 C211.58846325 421.11017945 211.59480455 424.36943332 211.60888672 427.62890625 C211.62600609 431.79268369 211.61610669 435.95588203 211.59816933 440.11963844 C211.58729734 443.34026405 211.59079293 446.56075368 211.5985527 449.78138351 C211.60054381 451.31627853 211.59813401 452.85118618 211.59111404 454.38606644 C211.58343951 456.53456322 211.59518452 458.6821378 211.61181641 460.83056641 C211.61420319 462.04918365 211.61658997 463.2678009 211.61904907 464.52334595 C211.90863461 468.7259643 211.90863461 468.7259643 215 475 C203.12 475 191.24 475 179 475 C179.99 473.02 180.98 471.04 182 469 C182.43103774 466.55538759 182.43103774 466.55538759 182.36076355 464.10244751 C182.36488754 463.16864258 182.36901154 462.23483765 182.3732605 461.2727356 C182.35708176 459.76222122 182.35708176 459.76222122 182.34057617 458.22119141 C182.34123329 456.61053802 182.34123329 456.61053802 182.34190369 454.96734619 C182.33981858 451.42856479 182.31649989 447.89026085 182.29296875 444.3515625 C182.28737183 441.89391336 182.28310218 439.43626087 182.28010559 436.97860718 C182.26866449 430.51770752 182.23920329 424.05701096 182.20599365 417.59619141 C182.17527714 411.00035347 182.16159685 404.40448264 182.14648438 397.80859375 C182.11433317 384.87230931 182.06372406 371.93616547 182 359 C181.70432349 359.85484576 181.70432349 359.85484576 181.40267372 360.72696114 C180.496686 363.34232922 179.58747851 365.95656719 178.67822266 368.57080078 C178.36824844 369.46716751 178.05827423 370.36353424 177.73890686 371.2870636 C175.28634033 378.32739356 172.54612598 385.12312589 169.375 391.875 C168.86775391 392.96159912 168.36050781 394.04819824 167.83789062 395.16772461 C157.11964743 417.6816109 143.46236582 438.305894 127 457 C126.38769531 457.7115625 125.77539062 458.423125 125.14453125 459.15625 C123.44870087 461.12196312 121.72949577 463.06383493 120 465 C119.16855469 465.93585938 118.33710937 466.87171875 117.48046875 467.8359375 C111.66272507 474.32535674 105.61944604 480.31356193 99 486 C98.04867188 486.83917969 97.09734375 487.67835938 96.1171875 488.54296875 C71.69282515 509.88702647 43.29521487 526.19779878 13.18994141 538.12695312 C11.67131833 538.73237075 10.15826454 539.35187446 8.64990234 539.98242188 C2.29623492 542.61222186 -4.12761845 544.65789906 -10.75 546.5 C-11.8332959 546.80188232 -12.9165918 547.10376465 -14.03271484 547.41479492 C-24.58349046 550.27892837 -35.20040546 552.33818663 -46 554 C-46.71897461 554.11182617 -47.43794922 554.22365234 -48.17871094 554.33886719 C-123.68825268 565.84128176 -199.46925596 545.71868845 -260.875 500.9375 C-268.00323131 495.67185032 -274.57291814 490.10517275 -281 484 C-282.28589073 482.88911215 -283.57727793 481.7845434 -284.875 480.6875 C-293.61554285 473.0597162 -301.71924854 464.74303982 -308.91015625 455.640625 C-310.25909237 453.93617487 -311.64023315 452.25650344 -313.05859375 450.609375 C-324.87461127 436.82040777 -334.55424199 421.03911627 -343 405 C-343.50539307 404.05278076 -343.50539307 404.05278076 -344.02099609 403.08642578 C-357.61431389 377.46500261 -367.10812931 349.55829913 -372 321 C-372.29414795 319.34315186 -372.29414795 319.34315186 -372.59423828 317.65283203 C-385.10081256 245.15969626 -367.51875782 169.56642105 -326 109 C-310.30587361 86.87022203 -291.65853146 65.43781107 -270 49 C-268.74091285 48.00290955 -267.48321308 47.0040658 -266.2265625 46.00390625 C-236.11615229 22.23570526 -201.76580863 5.62078885 -165 -5 C-164.17516113 -5.23847656 -163.35032227 -5.47695313 -162.50048828 -5.72265625 C-110.05408335 -20.45183717 -51.29152565 -17.64387902 0 0 Z " fill="#FEF64F" transform="translate(398,38)"/>
<path d="M0 0 C1.08055664 -0.01409912 2.16111328 -0.02819824 3.27441406 -0.04272461 C18.70606924 0.05010975 32.02171579 4.48595518 43.8125 14.375 C44.1425 10.745 44.4725 7.115 44.8125 3.375 C54.7125 3.375 64.6125 3.375 74.8125 3.375 C74.1525 5.355 73.4925 7.335 72.8125 9.375 C72.51667832 12.05852164 72.51667832 12.05852164 72.55421448 14.80354309 C72.54397247 16.38195984 72.54397247 16.38195984 72.53352356 17.99226379 C72.53607651 19.13152817 72.53862946 20.27079254 72.54125977 21.44458008 C72.53603302 22.65685272 72.53080627 23.86912537 72.52542114 25.11813354 C72.51518819 27.74872917 72.50846392 30.37906391 72.50753975 33.00965309 C72.50558828 37.18608942 72.48747143 41.36236217 72.46678162 45.53874207 C72.41771901 55.92080173 72.38684895 66.30290608 72.36547852 76.68505859 C72.34886378 84.74089439 72.32576704 92.79658986 72.28245777 100.85233229 C72.26442338 104.31530084 72.25204243 107.77807886 72.25375557 111.2410984 C72.25191501 147.98954095 72.25191501 147.98954095 65.5625 161.875 C65.25803955 162.53169678 64.9535791 163.18839355 64.63989258 163.86499023 C58.17793893 177.31949296 47.78169049 185.34003141 33.8125 190.375 C23.71568879 193.00293717 14.06464086 193.86416295 3.625 193.75 C2.61910828 193.74351944 2.61910828 193.74351944 1.59289551 193.73690796 C-19.38410032 193.57940341 -42.71562539 191.11664105 -61.1875 180.375 C-61.07156494 179.83198242 -60.95562988 179.28896484 -60.83618164 178.72949219 C-58.69836994 168.63124321 -56.60785543 158.71574365 -56.1875 148.375 C-55.5275 149.055625 -54.8675 149.73625 -54.1875 150.4375 C-53.19233327 151.42157852 -52.19176093 152.40020394 -51.1875 153.375 C-50.62933594 153.91769531 -50.07117187 154.46039063 -49.49609375 155.01953125 C-34.1141388 169.24543113 -16.30077074 173.49599218 4.0625 173.625 C5.60780396 173.63901855 5.60780396 173.63901855 7.18432617 173.65332031 C16.63189252 173.61358934 26.20677146 172.3480278 33.54296875 165.83984375 C37.2437942 161.82833171 39.39664613 157.64231352 40.8125 152.375 C41.0909375 151.37339844 41.369375 150.37179687 41.65625 149.33984375 C44.43086958 137.74039247 44.11379558 126.23059467 43.8125 114.375 C43.37244629 114.84260742 42.93239258 115.31021484 42.47900391 115.79199219 C38.96027915 119.43662235 35.78619829 122.37099013 31.1875 124.625 C29.83785156 125.31335938 29.83785156 125.31335938 28.4609375 126.015625 C18.43132095 129.75256992 8.65074129 130.90617342 -2 130.8125 C-3.22396484 130.80420166 -4.44792969 130.79590332 -5.70898438 130.78735352 C-22.04560221 130.4832604 -36.18935086 127.01763544 -48.5625 115.625 C-62.48895671 100.60060687 -64.97942499 78.92615963 -64.49609375 59.28515625 C-63.6487393 41.6524485 -58.49871922 25.04698888 -45.26171875 12.78515625 C-31.63894477 2.10503993 -16.72097133 0.15973189 0 0 Z " fill="#030303" transform="translate(1414.1875,148.625)"/>
<path d="M0 0 C15.18 0 30.36 0 46 0 C46 3.3 46 6.6 46 10 C46.87358144 13.3635037 47.80053251 16.45858074 48.98046875 19.703125 C49.29485397 20.60476379 49.6092392 21.50640259 49.93315125 22.43536377 C50.93756194 25.29696835 51.96586994 28.14901365 53 31 C53.32711975 31.91096436 53.6542395 32.82192871 53.99127197 33.76049805 C56.39130187 40.43871264 58.84726932 47.09563406 61.3125 53.75 C62.08877292 55.85209812 62.86472641 57.95431422 63.64038086 60.05664062 C64.84849418 63.3309483 66.05686386 66.60515887 67.26649475 69.87890625 C70.24021789 77.92919196 73.19435022 85.98650747 76.140625 94.046875 C77.38012059 97.43465429 78.61978808 100.82237064 79.85946655 104.21008301 C80.660304 106.40012081 81.46029443 108.59046852 82.25942993 110.78112793 C83.36965105 113.82376457 84.48326519 116.86513865 85.59765625 119.90625 C85.9290863 120.81735535 86.26051636 121.72846069 86.60198975 122.66717529 C87.05629364 123.90410126 87.05629364 123.90410126 87.51977539 125.16601562 C87.78303116 125.88648071 88.04628693 126.6069458 88.31752014 127.34924316 C88.87954001 129.00730596 88.87954001 129.00730596 90 130 C93.35142101 119.9928318 96.69925908 109.98447207 100.04296684 99.97472382 C101.59699058 95.32293017 103.15208403 90.67150087 104.70996094 86.02099609 C121.64739141 44.77510372 121.64739141 44.77510372 129 2 C128.67 1.34 128.34 0.68 128 0 C144.5 0 161 0 178 0 C178 3.96 178 7.92 178 12 C178.54433746 15.35756477 178.54433746 15.35756477 179.55029297 18.19677734 C179.89323395 19.26474045 180.23617493 20.33270355 180.58950806 21.43302917 C180.96989227 22.55598892 181.35027649 23.67894867 181.7421875 24.8359375 C182.13779877 26.0501387 182.53341003 27.2643399 182.94100952 28.51533508 C184.01050737 31.79620927 185.1015602 35.06952701 186.19697571 38.34182358 C187.33810437 41.76370081 188.45826871 45.19243176 189.58105469 48.62036133 C192.13140054 56.39201271 194.71235822 64.15329113 197.30274963 71.9116745 C197.99188004 73.97568003 198.68051737 76.03984944 199.36901855 78.10406494 C200.47554793 81.42123074 201.58274639 84.73817257 202.69035721 88.05497742 C203.11810618 89.335947 203.54577794 90.61694237 203.9733696 91.89796448 C206.17562927 98.49542594 208.38443344 105.09050357 210.61279297 111.67919922 C210.97756744 112.76283249 211.34234192 113.84646576 211.71817017 114.9629364 C212.3972355 116.97998183 213.07978219 118.99585987 213.76644897 121.0103302 C214.0629837 121.8933934 214.35951843 122.7764566 214.66503906 123.6862793 C215.05420502 124.83473579 215.05420502 124.83473579 215.45123291 126.00639343 C216 128 216 128 216 131 C216.66 131 217.32 131 218 131 C218.19602562 129.90936249 218.19602562 129.90936249 218.39601135 128.79669189 C218.96606357 126.15713829 219.72058728 123.7797214 220.66381836 121.25292969 C221.17814674 119.86640701 221.17814674 119.86640701 221.7028656 118.45187378 C222.07806839 117.45197418 222.45327118 116.45207458 222.83984375 115.421875 C223.2338588 114.36243683 223.62787384 113.30299866 224.03382874 112.2114563 C224.88641338 109.92013312 225.74067953 107.62943507 226.59643555 105.33929443 C228.40757676 100.49186218 230.21023265 95.6412896 232.01333618 90.79086304 C232.94487419 88.2851967 233.8767399 85.77965535 234.80917358 83.27432251 C239.17616462 71.53909096 243.51461435 59.79343011 247.83547974 48.0411377 C248.97588234 44.94057192 250.11864902 41.84088428 251.26147461 38.74121094 C252.91839048 34.24286562 254.55776894 29.73846909 256.18652344 25.2298584 C256.90161974 23.26967469 257.64036001 21.31815052 258.3828125 19.36816406 C258.75148438 18.36237305 259.12015625 17.35658203 259.5 16.3203125 C259.94859375 15.13719482 259.94859375 15.13719482 260.40625 13.93017578 C261.32924965 9.37514216 261 4.64760794 261 0 C276.18 0 291.36 0 307 0 C305.02 2.31 303.04 4.62 301 7 C291.41348255 21.29665608 285.06482175 37.85850765 278.09484863 53.53955078 C276.96801462 56.07188064 275.83748844 58.60253469 274.70605469 61.1328125 C266.12228771 80.33645446 257.65577761 99.58383724 249.5625 119 C249.253125 119.74085846 248.94375 120.48171692 248.625 121.24502563 C240.49697721 140.45294056 240.49697721 140.45294056 238 161 C223.48 161 208.96 161 194 161 C194.33 160.34 194.66 159.68 195 159 C195.62361138 152.7006422 194.55206798 147.33285259 192.53515625 141.40234375 C192.27071213 140.59125656 192.00626801 139.78016937 191.73381042 138.94450378 C190.85715763 136.27072775 189.9604871 133.60417964 189.0625 130.9375 C188.43466081 129.04234055 187.80739417 127.14699135 187.18066406 125.25146484 C180.71562221 105.8010929 173.82108179 86.4995874 166.92407227 67.19924927 C164.11280602 59.32870852 161.32515738 51.4503499 158.58605957 43.55438232 C157.95764815 41.74549656 157.32412267 39.93838994 156.69042969 38.13134766 C156.32723633 37.08124512 155.96404297 36.03114258 155.58984375 34.94921875 C155.27909912 34.05549561 154.96835449 33.16177246 154.64819336 32.2409668 C154 30 154 30 154 27 C153.34 27 152.68 27 152 27 C151.88739334 27.5556514 151.77478668 28.1113028 151.6587677 28.68379211 C150.53987591 33.98337651 149.0955619 39.01345789 147.26171875 44.10546875 C146.9884375 44.8791832 146.71515625 45.65289764 146.43359375 46.45005798 C145.8366033 48.14004757 145.23751672 49.82929785 144.63656616 51.5178833 C142.96242933 56.22704249 141.30942436 60.94360487 139.65625 65.66015625 C139.29528732 66.68953308 138.93432465 67.71890991 138.56242371 68.77947998 C134.00308142 81.80938996 129.54679777 94.87439764 125.1078186 107.94570923 C124.16470923 110.7225499 123.21914161 113.49853346 122.27133179 116.27377319 C120.92919617 120.20406563 119.59503524 124.13701934 118.26171875 128.0703125 C117.65952515 129.83035866 117.65952515 129.83035866 117.04516602 131.6259613 C113.54243289 142.0038597 112 149.73424502 112 161 C97.48 161 82.96 161 68 161 C68.33 158.03 68.66 155.06 69 152 C68.46478065 148.91564349 68.46478065 148.91564349 67.23046875 146.015625 C66.7617334 144.81099609 66.29299805 143.60636719 65.81005859 142.36523438 C65.21020028 140.90871214 64.60648592 139.45377504 64 138 C63.63972717 137.12931885 63.27945435 136.2586377 62.90826416 135.36157227 C59.7674052 127.79955957 56.54275276 120.27414923 53.3125 112.75 C52.28106311 110.33934228 51.24998017 107.92853309 50.21923828 105.51757812 C47.63483794 99.47510059 45.04568047 93.43467457 42.45526123 87.39477539 C40.28063839 82.32190191 38.11099962 77.24690102 35.94140625 72.171875 C32.63803064 64.44564626 29.32357092 56.72425194 26.00285339 49.00546265 C24.02896923 44.4121555 22.07177233 39.81224229 20.13088989 35.20489502 C18.95062227 32.40615923 17.76227644 29.61089684 16.5725708 26.81616211 C15.78468287 24.95684714 15.00804372 23.09277757 14.23193359 21.22851562 C10.60303919 12.72858059 6.5241311 6.5241311 0 0 Z " fill="#020201" transform="translate(402,116)"/>
<path d="M0 0 C10.56 0 21.12 0 32 0 C32.00586624 2.19970459 32.01173248 4.39940918 32.01777649 6.66577148 C32.07444179 27.38368753 32.1475207 48.10149924 32.23571491 68.81930542 C32.28066311 79.47083547 32.32008008 90.12233216 32.34643555 100.77392578 C32.36942347 110.05883334 32.40283048 119.34363523 32.44870156 128.62845898 C32.47262297 133.54381562 32.49135887 138.45906769 32.49761391 143.3744812 C32.5036696 148.00380404 32.52368714 152.63285933 32.55427551 157.26208305 C32.56304793 158.95833922 32.56677997 160.65463036 32.56500816 162.35090828 C32.56334843 164.67369872 32.58011313 166.99568026 32.60127258 169.31835938 C32.60818603 171.26518616 32.60818603 171.26518616 32.61523914 173.25134277 C32.92486898 177.82848897 32.92486898 177.82848897 36 185 C25.77 185 15.54 185 5 185 C5 180.71 5 176.42 5 172 C3.576875 173.216875 2.15375 174.43375 0.6875 175.6875 C-11.65388261 185.52231125 -24.17289229 187.34949587 -39.5625 187.1875 C-40.72974609 187.18685547 -41.89699219 187.18621094 -43.09960938 187.18554688 C-60.98634642 187.09485356 -75.06618298 183.66650901 -88.765625 171.421875 C-103.57502512 155.9889212 -103.73855919 133.94457329 -103.3515625 113.984375 C-102.70409868 96.64725033 -97.79546352 82.14242551 -85 70 C-68.8773728 56.37781256 -48.18303617 55.67782272 -28 57 C-16.37261012 58.40992835 -4.25771987 62.49336948 4 71 C4.06963245 62.88947758 4.12287815 54.77908089 4.15543652 46.66833305 C4.17106606 42.90182786 4.19225424 39.13552779 4.22631836 35.36914062 C4.25900935 31.73164998 4.2768734 28.09435615 4.28463173 24.45672989 C4.29015785 23.07169626 4.30094905 21.68667291 4.31719017 20.30172348 C4.33909128 18.35604179 4.34022648 16.41016039 4.34057617 14.46435547 C4.34723801 13.35849091 4.35389984 12.25262634 4.36076355 11.11325073 C3.9447108 7.52287549 2.77130072 5.1271906 1 2 C0.505 1.01 0.505 1.01 0 0 Z " fill="#010101" transform="translate(1104,92)"/>
<path d="M0 0 C10.23 0 20.46 0 31 0 C31.00586624 2.20414581 31.01173248 4.40829163 31.01777649 6.67922974 C31.07441226 27.42720122 31.14747594 48.17506825 31.23571491 68.92292976 C31.28068606 79.59021136 31.32009771 90.25745947 31.34643555 100.92480469 C31.36940491 110.22214504 31.4027911 119.51937954 31.44870156 128.81663597 C31.47264805 133.73975375 31.4913675 138.66276661 31.49761391 143.58594131 C31.50365828 148.22018298 31.52363477 152.85415612 31.55427551 157.48829842 C31.56306611 159.18861973 31.5667762 160.88897611 31.56500816 162.58931923 C31.56335505 164.91281246 31.58005705 167.23548749 31.60127258 169.55886841 C31.60818603 171.50846057 31.60818603 171.50846057 31.61523914 173.49743843 C32.03270888 177.29775601 33.09910811 179.71156004 35 183 C35.33 183.66 35.66 184.32 36 185 C25.44 185 14.88 185 4 185 C3.505 179.06 3.505 179.06 3 173 C1.453125 174.216875 -0.09375 175.43375 -1.6875 176.6875 C-11.17628863 183.60181109 -21.44814396 187.12012319 -33.17578125 187.1328125 C-34.33400391 187.13410156 -35.49222656 187.13539063 -36.68554688 187.13671875 C-38.48088867 187.13091797 -38.48088867 187.13091797 -40.3125 187.125 C-41.49779297 187.12886719 -42.68308594 187.13273438 -43.90429688 187.13671875 C-61.12978726 187.11761116 -76.21679012 183.83856319 -89.34765625 171.7890625 C-104.53335889 155.34685964 -104.58966134 132.28288643 -104.13623047 111.26171875 C-103.46889369 95.28390629 -97.35982385 80.78868909 -85.75 69.8125 C-69.26737829 55.73186839 -47.53407809 55.84981583 -27 57 C-15.22265507 58.3907579 -5.11016202 63.63168129 4 71 C3.93864131 62.77609272 3.8614301 54.5525487 3.76428509 46.3289938 C3.71966237 42.50995962 3.68038888 38.69103012 3.65356445 34.87182617 C3.62744999 31.18226177 3.58699129 27.49310197 3.53681374 23.80378914 C3.52019976 22.40012732 3.50865153 20.99639561 3.50238609 19.59264946 C3.49268609 17.61821145 3.46288379 15.64390382 3.43237305 13.66967773 C3.42126999 12.54826889 3.41016693 11.42686005 3.39872742 10.27146912 C3.06280622 6.24489597 3.06280622 6.24489597 0 0 Z " fill="#020202" transform="translate(953,92)"/>
<path d="M0 0 C12.89239797 -0.06983787 25.78475013 -0.12298172 38.6772995 -0.15543652 C44.66530592 -0.17102151 50.6531819 -0.19212742 56.64111328 -0.22631836 C62.43128218 -0.25916917 68.22132644 -0.27690674 74.01158142 -0.28463173 C76.20891783 -0.29012942 78.40624825 -0.30086352 80.60353088 -0.31719017 C101.31570341 -0.46481989 123.16202898 0.13068424 138.8828125 15.59375 C148.61777413 26.65783923 151.33414235 38.77587971 151.4375 53.125 C151.44765137 54.12611816 151.45780273 55.12723633 151.46826172 56.15869141 C151.32043842 68.84026493 147.59857719 82.40034424 138.75 91.875 C130.90027 98.91919002 122.12088253 102.41993725 112 105 C110.77039551 105.34369629 109.54079102 105.68739258 108.27392578 106.04150391 C101.34988939 107.56096527 94.29429875 107.24683401 87.24609375 107.1953125 C85.734382 107.19157551 84.22266781 107.18873179 82.71095276 107.18673706 C78.76049946 107.17915453 74.81019668 107.15955326 70.85980225 107.1373291 C66.81736282 107.11675378 62.77489873 107.10771052 58.73242188 107.09765625 C50.82154604 107.07630147 42.91079182 107.04223175 35 107 C35.06710418 113.72643084 35.15695194 120.45228521 35.26245117 127.17822266 C35.29566006 129.46526226 35.32370451 131.75238303 35.34643555 134.03955078 C35.3800551 137.33140578 35.43237624 140.62251972 35.48828125 143.9140625 C35.49467117 144.93303619 35.5010611 145.95200989 35.50764465 147.00186157 C35.53733589 148.44267593 35.53733589 148.44267593 35.56762695 149.91259766 C35.58428154 151.17168442 35.58428154 151.17168442 35.60127258 152.45620728 C35.9812144 155.72071113 35.9812144 155.72071113 39 161 C26.13 161 13.26 161 0 161 C0.99 159.02 1.98 157.04 3 155 C4.11037764 151.71012018 4.13048692 148.63685322 4.14044189 145.17521667 C4.14615204 143.98502426 4.15186218 142.79483185 4.15774536 141.568573 C4.15942215 139.61493332 4.15942215 139.61493332 4.16113281 137.62182617 C4.16576316 136.23359547 4.17078812 134.84536603 4.17617798 133.45713806 C4.18928281 129.68843054 4.19574315 125.91974083 4.20018864 122.15101409 C4.20312237 119.79507887 4.20722774 117.43914849 4.21169281 115.08321571 C4.22536251 107.70795756 4.23503182 100.3327105 4.2388947 92.95744056 C4.24337473 84.45127448 4.26092218 75.94526915 4.2898953 67.43915194 C4.31152844 60.85897055 4.32159985 54.27883433 4.32293582 47.69861776 C4.32398265 43.77090572 4.32986447 39.84334491 4.34775543 35.91567039 C4.36426452 32.21956179 4.366378 28.52371762 4.35761642 24.82758522 C4.35648206 22.83104145 4.37017736 20.83450635 4.3843689 18.8380127 C4.35464563 12.44065722 4.13680841 7.63037532 1 2 C0.67 1.34 0.34 0.68 0 0 Z " fill="#020200" transform="translate(415,352)"/>
<path d="M0 0 C11.84313719 10.02544051 17.54930451 23.89499171 19.46875 39.08984375 C21.02255681 58.59316946 19.55148919 81.58888701 6.3359375 97.1015625 C-5.20770976 109.39385634 -20.15817105 115.66081696 -36.96337891 116.19995117 C-40.34051895 116.25015706 -43.7151543 116.27553581 -47.0925293 116.27514648 C-49.19666152 116.27732092 -51.30025778 116.29549338 -53.40429688 116.31445312 C-72.66716147 116.39682992 -89.02912119 112.73184263 -103.65625 99.58984375 C-117.99343436 84.51009606 -119.40409812 63.36282687 -118.9140625 43.7109375 C-118.57059715 36.02833041 -117.42324778 29.27028683 -114.53125 22.08984375 C-114.10714844 21.03152344 -113.68304687 19.97320312 -113.24609375 18.8828125 C-107.50100759 6.16040722 -97.59041348 -3.58366282 -84.78125 -9.16015625 C-83.04273534 -9.77687705 -81.29167031 -10.35906815 -79.53125 -10.91015625 C-78.62117187 -11.20921875 -77.71109375 -11.50828125 -76.7734375 -11.81640625 C-52.24500563 -18.45568104 -20.44601081 -15.77515489 0 0 Z " fill="#020202" transform="translate(1084.53125,398.91015625)"/>
<path d="M0 0 C12.4860394 9.67354559 19.1391226 22.53291669 21.75390625 38.04296875 C24.08368703 57.45780857 22.88949472 80.83335338 10.875 97.0625 C0.76723777 108.92719086 -12.63736647 116.18082389 -28.20263672 117.99780273 C-33.65673024 118.39423217 -39.12776438 118.33406588 -44.59350586 118.31787109 C-46.74144579 118.31252131 -48.88917587 118.31783559 -51.03710938 118.32421875 C-70.2276383 118.33645247 -86.15353512 115.04930039 -100.51953125 101.57421875 C-106.49367659 95.35581534 -110.14007394 88.33543011 -112.8125 80.1875 C-113.11285156 79.30320312 -113.41320312 78.41890625 -113.72265625 77.5078125 C-119.37054392 57.70080177 -117.31502378 32.64236367 -107.3984375 14.6171875 C-98.21088858 0.12346059 -85.00064773 -6.67571885 -68.8125 -10.8125 C-46.42026092 -15.10674431 -19.11105795 -13.22474838 0 0 Z " fill="#020202" transform="translate(837.8125,396.8125)"/>
<path d="M0 0 C1.82337891 -0.01740234 1.82337891 -0.01740234 3.68359375 -0.03515625 C20.89467704 0.01994861 35.86987195 4.27958664 48.44140625 16.21875 C53.26305033 21.30074203 55.95163744 26.89916103 58.5 33.375 C58.9125 34.40625 59.325 35.4375 59.75 36.5 C61.79660721 44.34532766 61.62849961 52.39062506 61.5625 60.4375 C61.55798828 61.49388672 61.55347656 62.55027344 61.54882812 63.63867188 C61.53715918 66.21750908 61.52078885 68.79622294 61.5 71.375 C60.30870987 71.13385216 60.30870987 71.13385216 59.09335327 70.88783264 C54.70692437 70.26181462 50.43131394 70.19874719 46.00634766 70.16967773 C45.06912872 70.15977814 44.13190979 70.14987854 43.16629028 70.13967896 C40.08223966 70.10820422 36.99817366 70.08336218 33.9140625 70.05859375 C31.77029022 70.0380121 29.62652189 70.01701532 27.48275757 69.99562073 C21.8505575 69.94052511 16.21832157 69.8910608 10.58605957 69.84277344 C4.83468447 69.79246691 -0.91663879 69.73682868 -6.66796875 69.68164062 C-17.94526817 69.57421212 -29.22261268 69.47273335 -40.5 69.375 C-40.20198503 71.621872 -39.89752268 73.86788949 -39.59033203 76.11352539 C-39.42147491 77.36436417 -39.2526178 78.61520294 -39.0786438 79.90394592 C-37.60281911 88.75683146 -32.98163491 97.44959319 -25.8125 102.98046875 C-8.6829419 113.31028672 14.50328184 112.9181579 33.50292969 108.29467773 C41.75398666 105.99868884 49.38889315 102.1157379 56.5 97.375 C57.73107719 105.10220775 58.7700558 112.5433819 58.5 120.375 C52.71654929 124.14227553 47.2199352 125.65799741 40.5 127.0625 C39.06140625 127.38057617 39.06140625 127.38057617 37.59375 127.70507812 C29.89764031 129.38067344 22.43439701 130.53005287 14.5390625 130.578125 C13.79022797 130.58382507 13.04139343 130.58952515 12.26986694 130.59539795 C10.68822619 130.60479745 9.10656629 130.6113617 7.52490234 130.61523438 C5.16596736 130.6248333 2.80794597 130.65585914 0.44921875 130.6875 C-12.78897136 130.78203374 -27.1698475 130.27211532 -39 123.6875 C-39.65597168 123.33864746 -40.31194336 122.98979492 -40.98779297 122.63037109 C-53.3224572 115.83272268 -59.85477376 106.58103485 -64.640625 93.50390625 C-70.39714102 72.54495472 -69.9002866 47.94645503 -59.51953125 28.60546875 C-50.66268181 14.4379359 -37.50307886 5.83627292 -21.48046875 1.72265625 C-14.28592157 0.13990724 -7.34362223 -0.07008759 0 0 Z " fill="#020202" transform="translate(778.5,148.625)"/>
<path d="M0 0 C10.56 0 21.12 0 32 0 C32.33 24.75 32.66 49.5 33 75 C35.97 72.36 38.94 69.72 42 67 C58.51631553 56.74536453 76.81703186 54.25485206 95.76538086 58.44018555 C107.56181093 61.39541489 116.75368994 67.51636286 123.375 77.8125 C128.70338414 87.48812105 131.10334748 97.54391804 131.15771484 108.53076172 C131.16279556 109.2600589 131.16787628 109.98935608 131.17311096 110.74075317 C131.18376226 112.31540629 131.19240271 113.89007405 131.19923019 115.46474838 C131.21109416 117.96267141 131.23056498 120.46042732 131.25234985 122.95828247 C131.31371972 130.05725501 131.36797037 137.15620724 131.40136719 144.25537109 C131.42238192 148.6066708 131.45773406 152.95765944 131.50212479 157.30878067 C131.51622497 158.96003674 131.52499363 160.61134778 131.52817917 162.26266098 C131.53312141 164.57891893 131.55636125 166.89435921 131.58349609 169.21044922 C131.59158295 170.52471893 131.5996698 171.83898865 131.60800171 173.19308472 C131.9218974 177.81928207 131.9218974 177.81928207 135 185 C123.45 185 111.9 185 100 185 C100.99 182.36 101.98 179.72 103 177 C103.444621 173.37576053 103.444621 173.37576053 103.38818359 169.67285156 C103.39344055 168.98870178 103.39869751 168.304552 103.40411377 167.59967041 C103.41719525 165.36308173 103.40861468 163.12721953 103.3984375 160.890625 C103.40046258 159.3165473 103.40337763 157.74247052 103.40713501 156.168396 C103.41154314 152.87682115 103.40517985 149.5854915 103.39111328 146.29394531 C103.37407871 142.10709055 103.38383552 137.92081532 103.40183067 133.73398209 C103.41275807 130.48398609 103.40918058 127.23412362 103.4014473 123.98412323 C103.39946697 122.44219644 103.40182696 120.90025693 103.40888596 119.35834503 C103.45874413 105.40164258 102.42713876 92.59593737 92.25 82.1875 C83.15752174 76.06756271 72.6771852 75.7176732 62 77 C57.61758353 78.12814682 53.91009385 79.73910217 50 82 C49.24203125 82.43441406 48.4840625 82.86882812 47.703125 83.31640625 C39.62960801 88.64310637 35.07173049 97.72499946 33 107 C32.56355718 112.38866572 32.57678239 117.7625314 32.6015625 123.1640625 C32.59953772 124.72626887 32.59662292 126.28847432 32.59286499 127.85067749 C32.58846325 131.11017945 32.59480455 134.36943332 32.60888672 137.62890625 C32.62600609 141.79268369 32.61610669 145.95588203 32.59816933 150.11963844 C32.58729734 153.34026405 32.59079293 156.56075368 32.5985527 159.78138351 C32.60054381 161.31627853 32.59813401 162.85118618 32.59111404 164.38606644 C32.58343951 166.53456322 32.59518452 168.6821378 32.61181641 170.83056641 C32.61539658 172.65849228 32.61539658 172.65849228 32.61904907 174.52334595 C32.90863461 178.7259643 32.90863461 178.7259643 36 185 C24.12 185 12.24 185 0 185 C0.99 183.02 1.98 181.04 3 179 C4.08460388 175.07777103 4.13026052 171.32954197 4.14044189 167.2711792 C4.14341302 166.60763813 4.14638414 165.94409707 4.1494453 165.26044869 C4.15809385 163.04438778 4.15963727 160.82838112 4.16113281 158.61230469 C4.16576372 157.02027777 4.17078874 155.42825195 4.17617798 153.83622742 C4.18927787 149.51580947 4.19574224 145.19540704 4.20018864 140.87497234 C4.2031233 138.17344391 4.20722885 135.47191968 4.21169281 132.77039337 C4.22536148 124.31124446 4.23503118 115.8521052 4.2388947 107.392946 C4.24337384 97.6405177 4.26091769 87.88822966 4.2898953 78.13584399 C4.31153775 70.58916525 4.32160035 63.0425259 4.32293582 55.49581647 C4.32398202 50.99238261 4.32985043 46.48908071 4.34775543 41.98567963 C4.36428049 37.74702901 4.3663702 33.50860894 4.35761642 29.26993752 C4.35684841 27.7192021 4.36115748 26.16845406 4.37107468 24.61775017 C4.42479313 15.69047604 4.06795502 8.13591003 0 0 Z " fill="#020202" transform="translate(577,328)"/>
<path d="M0 0 C0.80670135 -0.00261841 1.61340271 -0.00523682 2.44454956 -0.00793457 C13.84201728 -0.01186623 25.01371867 0.55422335 36.3125 2.0625 C37.49811523 2.21936279 38.68373047 2.37622559 39.90527344 2.5378418 C47.50772756 3.67233341 54.54436074 5.64828496 61.75 8.3125 C61.94335938 9.446875 62.13671875 10.58125 62.3359375 11.75 C62.59880225 13.27086032 62.86183192 14.79169214 63.125 16.3125 C63.25132813 17.05628906 63.37765625 17.80007813 63.5078125 18.56640625 C64.37462112 23.55055579 65.47066093 28.41763747 66.75 33.3125 C62.36222333 31.91427071 58.17329958 30.24016664 53.9375 28.4375 C48.42543309 26.18143353 42.91685377 24.39025655 37.125 23 C36.16049927 22.76144287 36.16049927 22.76144287 35.17651367 22.51806641 C24.04778 20.00508195 12.47409466 20.13097321 1.125 20.125 C-0.10734375 20.11275391 -1.3396875 20.10050781 -2.609375 20.08789062 C-17.51570496 19.84805832 -17.51570496 19.84805832 -30.0078125 26.875 C-32.89759698 30.21915311 -32.58886297 33.59814487 -32.515625 37.83984375 C-32.11903153 41.53166238 -31.10267309 42.94686866 -28.25 45.3125 C-21.09367205 49.41882114 -13.49575172 50.58651614 -5.4375 51.8125 C-4.11620669 52.02443343 -2.79508265 52.23742452 -1.47412109 52.45141602 C5.13108819 53.50909241 11.74332131 54.45920438 18.37890625 55.30859375 C55.22789473 60.05269864 55.22789473 60.05269864 65.55078125 72.48046875 C71.73667942 81.29426639 73.29601278 90.7057755 71.75 101.3125 C69.55626699 107.95239423 66.29299804 113.92966434 60.75 118.3125 C60.1725 118.78945313 59.595 119.26640625 59 119.7578125 C47.11552878 128.71618285 31.85524306 130.44903416 17.42578125 130.515625 C16.44369186 130.52132507 15.46160248 130.52702515 14.44975281 130.53289795 C12.37300681 130.54230842 10.29624614 130.54886613 8.21948242 130.55273438 C5.11674052 130.56233222 2.0146932 130.59334855 -1.08789062 130.625 C-40.21226721 130.83136639 -40.21226721 130.83136639 -55.25 123.3125 C-55.84628961 120.78125059 -56.33093299 118.31121883 -56.75 115.75 C-57.00315647 114.28480025 -57.25834249 112.81994962 -57.515625 111.35546875 C-57.63873047 110.65341309 -57.76183594 109.95135742 -57.88867188 109.22802734 C-58.3143464 106.97137712 -58.87705366 104.77227586 -59.5 102.5625 C-60.23212525 99.38995723 -60.15582091 98.28876871 -59.25 95.3125 C-58.26902344 95.83199219 -57.28804687 96.35148437 -56.27734375 96.88671875 C-29.6665557 110.74615757 3.99602471 117.38917179 33.44140625 108.5 C37.28241979 107.02031581 39.48025557 105.60198183 42.3125 102.5625 C44.19999726 98.2951149 44.2665774 95.9616966 43.75 91.3125 C41.15187774 85.73665969 37.8025791 84.53846496 32.26171875 82.43359375 C19.80495934 78.45685298 6.49838033 77.40450383 -6.42724609 75.75756836 C-24.60014025 73.42944 -43.23387679 70.92737734 -55.9609375 56.4140625 C-61.40551439 47.5377523 -61.58593729 37.39688098 -60.25 27.3125 C-57.59158121 18.40396896 -52.82757558 12.58568095 -44.93359375 7.953125 C-30.54099455 0.295091 -15.94380117 0.04958117 0 0 Z " fill="#030303" transform="translate(1173.25,384.6875)"/>
<path d="M0 0 C0.33 6.27 0.66 12.54 1 19 C2.11375 17.80375 3.2275 16.6075 4.375 15.375 C17.37259689 2.46861431 33.66201378 -0.30010316 51.27709961 -0.31469727 C64.6129951 -0.10817602 75.89025533 3.89223151 86.0234375 12.7734375 C98.95875959 26.16064857 100.44729674 45.57734249 100.41069031 63.21278763 C100.40611397 65.61032742 100.42047402 68.00716647 100.43908691 70.40463257 C100.48154223 76.34206821 100.49314636 82.27948003 100.50531006 88.21704102 C100.51685985 93.27561279 100.54042518 98.33385188 100.58000183 103.39228439 C100.59349373 105.74438543 100.58942077 108.09602667 100.58459473 110.44815063 C100.59393476 111.89203472 100.60410344 113.33591377 100.61523438 114.77978516 C100.61728882 116.03280426 100.61934326 117.28582336 100.62145996 118.57681274 C100.86617988 122.59785112 100.86617988 122.59785112 104 128 C92.12 128 80.24 128 68 128 C68.99 126.02 69.98 124.04 71 122 C71.44994983 118.50047788 71.44994983 118.50047788 71.38818359 114.73217773 C71.39344055 114.03041916 71.39869751 113.32866058 71.40411377 112.6056366 C71.41725617 110.29805862 71.4085899 107.99117814 71.3984375 105.68359375 C71.40046148 104.06421274 71.40337562 102.44483262 71.40713501 100.82545471 C71.41155192 97.43196939 71.40515374 94.03872133 71.39111328 90.64526367 C71.3741175 86.33066096 71.38380503 82.01662219 71.40183067 77.70204067 C71.412768 74.35506591 71.40917545 71.00822059 71.4014473 67.66124153 C71.39946762 66.07269281 71.40182458 64.48413172 71.40888596 62.89559746 C71.45377255 49.94837622 71.3319628 36.02089965 62 26 C52.8838218 18.69300553 42.20992923 18.97274945 31 20 C21.20013027 22.14215743 13.37572239 27.00811883 7.4453125 35.12890625 C1.23438198 45.40082981 0.54191821 56.2781798 0.6015625 68.01171875 C0.59953565 69.43414966 0.59661916 70.85657955 0.59286499 72.27900696 C0.58847461 75.23989899 0.59476815 78.20051709 0.60888672 81.16137695 C0.62602429 84.93715157 0.61608818 88.71228836 0.59816933 92.48803997 C0.58728201 95.41789989 0.59079955 98.34761073 0.5985527 101.27747536 C0.60053863 102.66919851 0.59815263 104.06093567 0.59111404 105.45264244 C0.55721027 114.03279323 1.1528403 120.3056806 5 128 C-6.88 128 -18.76 128 -31 128 C-30.01 125.36 -29.02 122.72 -28 120 C-27.5675971 117.40488049 -27.5675971 117.40488049 -27.61904907 114.98497009 C-27.6105896 114.07536026 -27.60213013 113.16575043 -27.59341431 112.22857666 C-27.599487 111.25845642 -27.60555969 110.28833618 -27.61181641 109.28881836 C-27.60655945 108.24550858 -27.60130249 107.20219879 -27.59588623 106.12727356 C-27.58274305 102.69797547 -27.59140379 99.2691461 -27.6015625 95.83984375 C-27.59954029 93.44665946 -27.59662763 91.05347577 -27.59286499 88.66029358 C-27.58844945 83.65294508 -27.59484864 78.64575748 -27.60888672 73.63842773 C-27.62598717 67.22708057 -27.61612676 60.81610996 -27.59816933 54.40477657 C-27.58731872 49.46591871 -27.59078359 44.52714984 -27.5985527 39.58828926 C-27.60055068 37.22444171 -27.59810959 34.86058602 -27.59111404 32.49674797 C-27.58347775 29.19154381 -27.59513458 25.88694621 -27.61181641 22.58178711 C-27.60574371 21.60964264 -27.59967102 20.63749817 -27.59341431 19.63589478 C-27.64611477 13.98681245 -28.3858765 10.02836443 -31 5 C-29.13408203 4.83564453 -29.13408203 4.83564453 -27.23046875 4.66796875 C-18.44121367 3.84679061 -8.46256615 0 0 0 Z " fill="#030303" transform="translate(1237,149)"/>
<path d="M0 0 C6.62731787 4.87136185 10.69609243 13.31933712 12.51782227 21.18408203 C13.28416223 26.39439084 13.22318451 31.65063951 13.20629883 36.90771484 C13.20315272 38.95074589 13.22660818 40.99230478 13.25195312 43.03515625 C13.31174144 55.2173935 11.82797441 66.99636349 3.890625 76.71875 C-5.50577017 85.23310807 -16.79293646 86.24499637 -28.984375 86.21875 C-30.17417969 86.24710937 -31.36398437 86.27546875 -32.58984375 86.3046875 C-42.14987927 86.32558375 -50.78120335 84.23878336 -58.546875 78.40625 C-69.95355986 66.44314148 -70.52870092 50.27666744 -70.328125 34.56640625 C-69.97270764 23.26635548 -67.38661263 11.82590733 -59.71875 3.1640625 C-44.26677588 -10.71271037 -17.09639222 -10.38447527 0 0 Z " fill="#FDFDFD" transform="translate(1063.109375,410.28125)"/>
<path d="M0 0 C7.44346771 5.61002408 11.04446773 14.76015946 12.85546875 23.6484375 C13.21869286 28.10102151 13.28853475 32.52193002 13.24658203 36.98828125 C13.23054575 39.01371159 13.2464807 41.0371312 13.265625 43.0625 C13.22986385 55.22129258 11.77962417 66.94221219 3.85546875 76.6484375 C-5.30769163 84.95145448 -16.23381934 86.14779528 -28.14453125 86.0234375 C-29.25570312 86.03503906 -30.366875 86.04664063 -31.51171875 86.05859375 C-42.36053878 86.0203038 -51.82264022 83.93407773 -60.14453125 76.6484375 C-70.8746285 64.62979145 -70.76449905 47.25231217 -70.28515625 32.01220703 C-69.63463436 21.0775665 -66.5729635 9.21766064 -58.14453125 1.6484375 C-41.86354878 -9.9254582 -16.96225037 -10.6902343 0 0 Z " fill="#FDFDFD" transform="translate(819.14453125,410.3515625)"/>
<path d="M0 0 C6.27 0 12.54 0 19 0 C19 11.88 19 23.76 19 36 C35.83 36 52.66 36 70 36 C68.68 39.96 67.36 43.92 66 48 C65.67 49.98 65.34 51.96 65 54 C49.82 54 34.64 54 19 54 C19.0618172 67.64375782 19.0618172 67.64375782 19.16015625 81.28710938 C19.20839473 86.85669204 19.25247557 92.4260785 19.27099609 97.99584961 C19.28620813 102.48945105 19.32073369 106.98253708 19.36830902 111.47590828 C19.38307612 113.18494229 19.39103832 114.89404991 19.39188385 116.60314751 C18.97078696 129.52292842 18.97078696 129.52292842 24 141 C29.67373269 144.52851321 37.55900897 143.8973076 44 143 C51.63267172 140.53391565 56.94945615 135.54916294 62.3203125 129.7578125 C62.87460937 129.17773438 63.42890625 128.59765625 64 128 C64.33 128 64.66 128 65 128 C65.54492865 131.69286471 66.06157464 135.38371166 66.5078125 139.08984375 C66.78863663 141.32083547 67.11069541 143.54957931 67.5546875 145.75390625 C67.91349421 148.26992889 67.98312856 149.6471729 67 152 C56.11309409 162.06335768 40.18622389 163.33574061 26.125 163.5 C24.55649292 163.52791626 24.55649292 163.52791626 22.95629883 163.55639648 C14.44789417 163.48678288 7.84382301 161.46584872 0.6875 156.875 C-7.00162233 148.64942727 -8.16577048 139.49859998 -8.11352539 128.58618164 C-8.11367142 127.7756131 -8.11381744 126.96504456 -8.1139679 126.12991333 C-8.11327594 123.47329961 -8.10551739 120.8167576 -8.09765625 118.16015625 C-8.09578952 116.30928079 -8.09436682 114.45840482 -8.09336853 112.60752869 C-8.08956344 107.75290547 -8.07975042 102.8983125 -8.06866455 98.04370117 C-8.05840714 93.08317474 -8.05386165 88.12264338 -8.04882812 83.16210938 C-8.03812624 73.44139087 -8.02054582 63.72070269 -8 54 C-15.92 54 -23.84 54 -32 54 C-32 47.73 -32 41.46 -32 35 C-29.525 34.7525 -27.05 34.505 -24.5 34.25 C-16.95151063 33.36230008 -10.9785183 32.38102078 -5.6875 26.375 C-1.38250355 17.7650071 -0.50831518 9.55632542 0 0 Z " fill="#010101" transform="translate(895,352)"/>
<path d="M0 0 C0.99837891 -0.00773438 1.99675781 -0.01546875 3.02539062 -0.0234375 C13.88046588 0.00510971 24.62668074 2.31418074 32.5625 10.25 C40.75341131 21.42892232 42.06016785 32.60544359 41.9375 46.1875 C41.94910156 47.46818359 41.96070313 48.74886719 41.97265625 50.06835938 C41.93596086 62.07386648 40.3771458 73.67791202 32.5625 83.25 C23.41828062 91.53585396 12.45299739 92.76336744 0.5625 92.6875 C-0.54867188 92.70748047 -1.65984375 92.72746094 -2.8046875 92.74804688 C-13.10238665 92.7419894 -21.16266866 90.32824138 -28.6875 83.15234375 C-38.22243657 72.7873569 -38.9504678 59.8486783 -38.875 46.3125 C-38.89498047 45.04470703 -38.91496094 43.77691406 -38.93554688 42.47070312 C-38.92943329 30.5430915 -36.74298937 18.3346824 -28.4375 9.25 C-19.51546566 1.56672745 -11.52335413 -0.08892621 0 0 Z " fill="#FDFDFD" transform="translate(1416.4375,167.75)"/>
<path d="M0 0 C0.99 -0.01611328 1.98 -0.03222656 3 -0.04882812 C14.30155999 -0.05628298 22.87220767 3.34064284 31.34765625 10.8359375 C40.87707815 20.82842594 42.99877219 35.40440119 43.00024414 48.63134766 C42.7000361 60.7437412 39.76640135 73.98608629 31.375 83.0625 C22.54262553 91.32990382 11.90181227 92.66312766 0.25 92.625 C-1.21566406 92.64916992 -1.21566406 92.64916992 -2.7109375 92.67382812 C-12.94538433 92.68063294 -21.89595044 90.64096467 -29.375 83.3125 C-37.90958887 73.3441002 -39.02868149 59.86315467 -38.875 47.3125 C-38.89046875 46.04921875 -38.9059375 44.7859375 -38.921875 43.484375 C-38.87180706 31.31786455 -36.28817546 18.92979213 -28.375 9.3125 C-19.64670814 1.55081236 -11.38327975 -0.0367677 0 0 Z " fill="#FDFDFD" transform="translate(1066.375,167.6875)"/>
<path d="M0 0 C1.54385376 0.00241699 1.54385376 0.00241699 3.11889648 0.00488281 C10.31635079 0.12140378 16.43219744 0.80698614 22.8125 4.375 C23.885 4.9525 24.9575 5.53 26.0625 6.125 C35.34131498 13.71675771 40.76596533 23.33958363 42.53125 35.23828125 C43.94978599 51.05889795 43.47362267 68.38448003 33.21484375 81.40234375 C27.43027436 87.63492079 19.42163697 91.81483946 10.90332031 92.66552734 C7.62263817 92.71497685 4.34358182 92.74630509 1.0625 92.75 C-0.06671875 92.77449219 -1.1959375 92.79898438 -2.359375 92.82421875 C-11.4148009 92.8556612 -19.71259179 91.37131201 -26.5625 85 C-27.16835938 84.45601563 -27.77421875 83.91203125 -28.3984375 83.3515625 C-39.45971344 71.1310262 -38.93817376 55.51713283 -38.32910156 40.02929688 C-37.74425883 29.06652068 -35.32135532 16.43007706 -27.1875 8.375 C-18.37983418 1.98686047 -10.74877076 -0.01727126 0 0 Z " fill="#FDFDFD" transform="translate(914.1875,167.625)"/>
<path d="M0 0 C1.70878326 -0.01925285 1.70878326 -0.01925285 3.4520874 -0.03889465 C5.31900238 -0.04997505 5.31900238 -0.04997505 7.22363281 -0.0612793 C9.13961273 -0.07338692 9.13961273 -0.07338692 11.09429932 -0.08573914 C13.81140003 -0.10079676 16.5284744 -0.11061431 19.24560547 -0.11816406 C22.69167859 -0.12912185 26.13708666 -0.16338022 29.5829277 -0.20333576 C32.90063274 -0.23615063 36.21827827 -0.24031446 39.53613281 -0.2487793 C40.75645203 -0.26628738 41.97677124 -0.28379547 43.23406982 -0.30183411 C53.93379525 -0.27523905 64.64591946 1.49505333 73.09082031 8.5324707 C80.67412239 16.39594404 80.1086805 25.955629 79.94628906 36.16137695 C79.63919349 44.30016605 77.89398075 50.49852501 71.86425781 56.17700195 C61.7624179 63.97197603 50.03111849 64.48608172 37.73925781 64.44262695 C35.93642334 64.44549713 35.93642334 64.44549713 34.09716797 64.44842529 C31.57600696 64.44977855 29.05483879 64.44614258 26.53369141 64.43774414 C22.66065079 64.42695709 18.78806611 64.43770729 14.91503906 64.45043945 C12.46061095 64.44911918 10.00618313 64.44655953 7.55175781 64.44262695 C5.80971069 64.44869965 5.80971069 64.44869965 4.0324707 64.45489502 C2.42940063 64.44543854 2.42940063 64.44543854 0.79394531 64.43579102 C-0.14852051 64.43419983 -1.09098633 64.43260864 -2.06201172 64.43096924 C-4.32324219 64.17700195 -4.32324219 64.17700195 -6.32324219 62.17700195 C-6.57048035 59.62742615 -6.57048035 59.62742615 -6.56616211 56.36621094 C-6.56923874 55.14832382 -6.57231537 53.93043671 -6.57548523 52.67564392 C-6.56858802 51.34145927 -6.56132109 50.00727648 -6.55371094 48.6730957 C-6.5525192 47.31071516 -6.55206596 45.94833379 -6.55232239 44.58595276 C-6.55075741 41.73026387 -6.54246599 38.87470033 -6.52905273 36.01904297 C-6.51204672 32.35124308 -6.50823884 28.68358081 -6.50899792 25.01574612 C-6.50872655 22.20285214 -6.503251 19.38998849 -6.49599648 16.57710457 C-6.4928057 15.22425631 -6.49084145 13.8714046 -6.49010277 12.51855278 C-6.48794446 10.63182217 -6.47841494 8.74510426 -6.46850586 6.85839844 C-6.46469406 5.78299301 -6.46088226 4.70758759 -6.45695496 3.59959412 C-6.21083267 -0.85962045 -3.94016202 0.03852973 0 0 Z " fill="#FDF54E" transform="translate(456.3232421875,373.822998046875)"/>
<path d="M0 0 C10.23 0 20.46 0 31 0 C31.01458252 3.50238281 31.02916504 7.00476563 31.04418945 10.61328125 C31.09455337 22.19234686 31.16100249 33.77128944 31.23571491 45.35021973 C31.28061585 52.36969498 31.3200435 59.38912015 31.34643555 66.40869141 C31.37192658 73.18448076 31.4128696 79.96003739 31.46318626 86.73568726 C31.47985569 89.3191754 31.49136947 91.90270219 31.49761391 94.48623657 C31.50725374 98.10824943 31.53531347 101.72969067 31.56762695 105.3515625 C31.56619186 106.4168367 31.56475677 107.4821109 31.5632782 108.57966614 C31.57581635 109.57511948 31.58835449 110.57057281 31.60127258 111.59619141 C31.60588155 112.4516153 31.61049051 113.30703918 31.61523914 114.18838501 C32.02699984 117.9679958 32.02699984 117.9679958 35 125 C23.12 125 11.24 125 -1 125 C0.32 122.36 1.64 119.72 3 117 C3.57375431 114.3973318 3.57375431 114.3973318 3.50120544 111.95373535 C3.51103958 111.03715652 3.52087372 110.1205777 3.53100586 109.17622375 C3.52133789 108.19832382 3.51166992 107.22042389 3.50170898 106.21289062 C3.50981346 104.63570503 3.50981346 104.63570503 3.51808167 103.0266571 C3.53053409 99.56956367 3.51410027 96.11330868 3.49609375 92.65625 C3.49624882 90.24304155 3.49773909 87.82983285 3.50050354 85.41662598 C3.50188598 80.36634267 3.48935487 75.31634389 3.46655273 70.26611328 C3.43816906 63.80328279 3.44090774 57.34092485 3.45364285 50.87805939 C3.46060871 45.89711494 3.45280028 40.91627909 3.44038582 35.93534851 C3.43588017 33.55279456 3.43552674 31.17022893 3.43945122 28.78767395 C3.44237225 25.45391069 3.42581291 22.12079115 3.40405273 18.78710938 C3.41080521 17.32025948 3.41080521 17.32025948 3.41769409 15.82377625 C3.40778946 14.90719742 3.39788483 13.99061859 3.38768005 13.04626465 C3.38403521 11.86720676 3.38403521 11.86720676 3.38031673 10.66432953 C2.95627094 7.01028512 2.95627094 7.01028512 0 0 Z " fill="#000000" transform="translate(1157,152)"/>
<path d="M0 0 C0.97324219 0.00684814 1.94648437 0.01369629 2.94921875 0.02075195 C11.68337179 0.21612887 18.12712833 1.83273327 25.5 6.5625 C33.03044968 14.61832989 35.24556972 21.71441291 35.1875 32.4375 C26.24286869 32.50696766 17.29833004 32.56029465 8.35348797 32.59293652 C4.20016143 32.60860189 0.04701925 32.62985582 -4.10620117 32.66381836 C-8.11325585 32.6963811 -12.12013304 32.71434645 -16.1273098 32.72213173 C-17.65716535 32.72768082 -19.18701103 32.73851676 -20.71679115 32.75469017 C-22.85738855 32.77642415 -24.99724973 32.77946872 -27.13793945 32.77807617 C-28.35705521 32.78473801 -29.57617096 32.79139984 -30.83222961 32.79826355 C-33.8125 32.4375 -33.8125 32.4375 -35.70231628 31.11543274 C-37.63862653 28.18889156 -37.20445402 25.85309936 -36.8125 22.4375 C-33.64964695 13.47608302 -26.9403687 7.95161221 -18.8125 3.4375 C-12.40720797 0.51154046 -7.00456567 -0.07516919 0 0 Z " fill="#FCFCFC" transform="translate(777.8125,167.5625)"/>
<path d="M0 0 C3.56262685 2.72625395 5.27838503 5.93194242 6.10546875 10.30859375 C6.37528516 14.6593833 5.50110804 18.12590517 3.1171875 21.78125 C-0.05817439 25.31439915 -3.92732392 26.97546368 -8.578125 27.66796875 C-15.12593569 27.93297289 -19.1341807 26.13462465 -24.14453125 21.88671875 C-27.08842136 18.05103132 -27.02200758 13.92512882 -26.82421875 9.2421875 C-25.95771289 4.68387848 -23.87950399 2.13101574 -20.26953125 -0.67578125 C-14.07445324 -4.52677569 -6.11938013 -3.48108451 0 0 Z " fill="#050505" transform="translate(1182.26953125,98.67578125)"/>
</svg>
